<svg width="27" height="25" viewBox="0 0 27 25" fill="none" xmlns="http://www.w3.org/2000/svg">
<path d="M26.8007 13.482H23.0967C23.029 13.0028 22.8909 12.5771 22.6823 12.205C22.4737 11.8273 22.2059 11.5059 21.8789 11.241C21.5519 10.976 21.1742 10.773 20.7457 10.6321C20.3229 10.4911 19.8634 10.4207 19.3673 10.4207C18.4709 10.4207 17.6901 10.6434 17.0248 11.0887C16.3596 11.5285 15.8437 12.1712 15.4772 13.0169C15.1108 13.8569 14.9276 14.8773 14.9276 16.0782C14.9276 17.3128 15.1108 18.3502 15.4772 19.1902C15.8493 20.0302 16.368 20.6645 17.0333 21.093C17.6985 21.5214 18.4681 21.7357 19.3419 21.7357C19.8324 21.7357 20.2863 21.6708 20.7035 21.5412C21.1263 21.4115 21.5012 21.2226 21.8282 20.9746C22.1552 20.7209 22.4258 20.4136 22.64 20.0528C22.8599 19.692 23.0121 19.2804 23.0967 18.8181L26.8007 18.835C26.7049 19.63 26.4653 20.3967 26.0819 21.1353C25.7042 21.8682 25.1939 22.525 24.5512 23.1057C23.9142 23.6807 23.1531 24.1374 22.2679 24.4756C21.3885 24.8083 20.3934 24.9746 19.2827 24.9746C17.738 24.9746 16.3567 24.625 15.139 23.9259C13.9269 23.2269 12.9684 22.2149 12.2637 20.89C11.5646 19.5651 11.2151 17.9612 11.2151 16.0782C11.2151 14.1895 11.5703 12.5827 12.2806 11.2579C12.991 9.933 13.955 8.92383 15.1728 8.23039C16.3906 7.5313 17.7605 7.18176 19.2827 7.18176C20.2863 7.18176 21.2165 7.32271 22.0734 7.6046C22.936 7.88648 23.6999 8.29804 24.3652 8.83927C25.0305 9.37486 25.5717 10.0317 25.9889 10.8097C26.4117 11.5877 26.6823 12.4785 26.8007 13.482Z" fill="black"/>
<path d="M0.953491 3.73997V0.720947H15.1776V3.73997H9.87527V18.0402H6.25582V3.73997H0.953491Z" fill="black"/>
</svg>
