<svg width="18" height="18" viewBox="0 0 18 18" fill="none" xmlns="http://www.w3.org/2000/svg">
<path fill-rule="evenodd" clip-rule="evenodd" d="M8.1 0C3.62649 0 0 3.62649 0 8.1C0 12.5735 3.62649 16.2 8.1 16.2C10.0125 16.2 11.7702 15.5372 13.1559 14.4287L16.4636 17.7364C16.8151 18.0879 17.3849 18.0879 17.7364 17.7364C18.0879 17.3849 18.0879 16.8151 17.7364 16.4636L14.4287 13.1559C15.5372 11.7702 16.2 10.0125 16.2 8.1C16.2 3.62649 12.5735 0 8.1 0ZM1.8 8.1C1.8 4.62061 4.62061 1.8 8.1 1.8C11.5794 1.8 14.4 4.62061 14.4 8.1C14.4 11.5794 11.5794 14.4 8.1 14.4C4.62061 14.4 1.8 11.5794 1.8 8.1Z" fill="black"/>
</svg>

